<svg width="16" height="16" viewBox="0 0 16 16" fill="none" xmlns="http://www.w3.org/2000/svg">
<path fill-rule="evenodd" clip-rule="evenodd" d="M6.56463 8.42401H6.5853C8.54063 8.42401 10.1306 6.83334 10.1306 4.87868C10.1306 2.92401 8.54063 1.33334 6.5853 1.33334C4.63063 1.33334 3.04063 2.92401 3.04063 4.87668C3.0373 5.82068 3.40196 6.71001 4.0673 7.38001C4.73196 8.04934 5.61863 8.42068 6.56463 8.42401ZM4.04063 4.87868C4.04063 3.47534 5.18263 2.33334 6.5853 2.33334C7.98863 2.33334 9.13063 3.47534 9.13063 4.87868C9.13063 6.28201 7.98863 7.42401 6.5853 7.42401H6.56663C5.8893 7.42134 5.2533 7.15534 4.77596 6.67534C4.2993 6.19468 4.03796 5.55801 4.04063 4.87868Z" fill="#F26628"/>
<path fill-rule="evenodd" clip-rule="evenodd" d="M1.33398 12.0767C1.33398 14.53 5.28665 14.53 6.58532 14.53C8.83998 14.53 11.8367 14.2774 11.8367 12.0914C11.8367 9.63738 7.88398 9.63738 6.58532 9.63738C4.33065 9.63738 1.33398 9.89005 1.33398 12.0767ZM2.33398 12.0767C2.33398 11.122 3.76465 10.6374 6.58532 10.6374C9.40598 10.6374 10.8367 11.126 10.8367 12.0914C10.8367 13.0454 9.40598 13.53 6.58532 13.53C3.76465 13.53 2.33398 13.0407 2.33398 12.0767Z" fill="#F26628"/>
<path d="M12.8034 8.95314C12.5274 8.95314 12.3034 8.72914 12.3034 8.45314V7.6159H11.4407C11.1647 7.6159 10.9407 7.3919 10.9407 7.1159C10.9407 6.8399 11.1647 6.6159 11.4407 6.6159H12.3034V5.77914C12.3034 5.50314 12.5274 5.27914 12.8034 5.27914C13.0794 5.27914 13.3034 5.50314 13.3034 5.77914V6.6159H14.1673C14.4433 6.6159 14.6673 6.8399 14.6673 7.1159C14.6673 7.3919 14.4433 7.6159 14.1673 7.6159H13.3034V8.45314C13.3034 8.72914 13.0794 8.95314 12.8034 8.95314Z" fill="#F26628"/>
</svg>
