<svg width="16" height="16" viewBox="0 0 16 16" fill="none" xmlns="http://www.w3.org/2000/svg">
<path fill-rule="evenodd" clip-rule="evenodd" d="M12.7149 12.7133C10.6775 14.7509 7.6605 15.1911 5.1916 14.0494C4.82712 13.9026 4.52831 13.784 4.24423 13.784C3.45298 13.7887 2.46809 14.5559 1.95622 14.0447C1.44435 13.5327 2.21216 12.5471 2.21216 11.751C2.21216 11.4669 2.09826 11.1735 1.95153 10.8083C0.809205 8.33976 1.25006 5.3218 3.28749 3.28481C5.88838 0.682965 10.114 0.682965 12.7149 3.28414C15.3205 5.89001 15.3158 10.1121 12.7149 12.7133Z" stroke="#F26628" stroke-linecap="round" stroke-linejoin="round"/>
<path d="M10.6253 8.27532H10.6313" stroke="#F26628" stroke-width="1.33333" stroke-linecap="round" stroke-linejoin="round"/>
<path d="M7.95338 8.27532H7.95938" stroke="#F26628" stroke-width="1.33333" stroke-linecap="round" stroke-linejoin="round"/>
<path d="M5.28151 8.27532H5.28751" stroke="#F26628" stroke-width="1.33333" stroke-linecap="round" stroke-linejoin="round"/>
</svg>
