<svg xmlns="http://www.w3.org/2000/svg" width="37" height="37" fill="none" viewBox="0 0 37 37"><path stroke="#f26628" stroke-linecap="round" stroke-linejoin="round" stroke-width="2.267" d="M17.37 4.216h-5.652c-4.648 0-7.562 3.29-7.562 7.949V24.73c0 4.658 2.9 7.949 7.562 7.949h13.338c4.663 0 7.563-3.29 7.563-7.949v-6.088"/><path stroke="#f26628" stroke-linecap="round" stroke-linejoin="round" stroke-width="2.267" d="M13.342 16.507 24.637 5.21a3.605 3.605 0 0 1 5.096 0l1.84 1.84a3.603 3.603 0 0 1 0 5.095l-11.35 11.35a3.28 3.28 0 0 1-2.32.961H12.24l.142-5.713a3.28 3.28 0 0 1 .96-2.237" clip-rule="evenodd"/><path stroke="#f26628" stroke-linecap="round" stroke-linejoin="round" stroke-width="2.267" d="m22.92 6.957 6.901 6.901"/></svg>